<svg id="Camada_1" data-name="Camada 1" xmlns="http://www.w3.org/2000/svg" viewBox="0 0 20.77 36.36"><defs><style>.cls-1{fill:#1d1d1b;}</style></defs><title>Sem título-1</title><path class="cls-1" d="M13.37,25C12.23,27.51,9.78,28.66,7,28.66S1.45,27.05,1,25a8,8,0,0,1-.46-2.64,6.14,6.14,0,0,1,2-4.59A8.77,8.77,0,0,1,7.14,16c1,0,2-.2,3-.2s1.83.12,2.75.16ZM10.58,18.8c-2.6,0-5,.61-5,3.7a2.65,2.65,0,0,0,2.68,2.83c3.71,0,4.59-3.55,4.7-6.53Z"/><path d="M17.77,15.85q0-.53,0-1H12.91c0,.38,0,.76-.07,1.13l.53,9V28.2h4.4V15.85Z"/><rect x="17.77" y="24.99" width="2.64" height="3.21"/><path d="M17.62,13.25a6.18,6.18,0,0,0-.5-1.91c-1.38-3.13-4.36-4-7.53-4-4.47,0-8.18,1.76-8.3,6.73H6.34c0-2.14,1-3.67,3.25-3.67,2.7,0,3.35,2.21,3.32,4.38h4.83C17.72,14.29,17.69,13.78,17.62,13.25Z"/></svg>