<svg id="Camada_1" data-name="Camada 1" xmlns="http://www.w3.org/2000/svg" viewBox="0 0 19.94 36.33"><defs><style>.cls-1{fill:#1d1d1b;}</style></defs><title>Sem título-1</title><path class="cls-1" d="M14.23,15.48a6,6,0,0,0-.92-3.25,3.3,3.3,0,0,0-2.9-1.45c-4,0-4.55,4.58-4.55,7.68,0,2.94,1,6.84,4.63,6.84,2.21,0,3.44-1.95,3.63-3.93h4.39c-.23,5-3.74,7.26-8.48,7.26-6.54,0-9.56-4.86-9.56-10.9A12.62,12.62,0,0,1,2.8,10.2,7.19,7.19,0,0,1,8.88,7.34c2.41,0,4.51.49,5.62,2.86Z"/><polygon class="cls-1" points="14.5 10.2 14.5 7.83 18.4 7.83 18.4 15.48 14.23 15.48 14.5 10.2"/></svg>