<svg id="Camada_1" data-name="Camada 1" xmlns="http://www.w3.org/2000/svg" viewBox="0 0 20.73 36.36"><defs><style>.cls-1{fill:none;}</style></defs><title>Sem título-1</title><path class="cls-1" d="M10.41,10.54c-3.22,0-4.25,2.9-4.48,5.58h8.34C14.23,13.82,13.31,10.54,10.41,10.54Z"/><path d="M5.82,19.06H19.39c0-.11,0-.19,0-.3a9.47,9.47,0,0,0,0-1.76c0-.29,0-.58-.06-.88H5.93Z"/><path d="M5.93,16.12c.23-2.68,1.26-5.58,4.48-5.58,2.9,0,3.82,3.28,3.86,5.58h5.06c-.2-2.11-.76-4.5-2.19-6A9.46,9.46,0,0,0,10,7.36C3.83,7.36.66,12.26.66,17.84a11.83,11.83,0,0,0,2.22,7.3A7.39,7.39,0,0,0,6,27.7a11.59,11.59,0,0,0,4.25,1c4.13,0,8.56-2.18,8.9-6.65H14.27a3.77,3.77,0,0,1-3.79,3.32C7,25.33,5.78,22,5.82,19.06Z"/></svg>