<svg id="Camada_1" data-name="Camada 1" xmlns="http://www.w3.org/2000/svg" viewBox="0 0 24.25 36.65"><title>Sem título-1</title><rect x="8.7" y="24.95" width="2.45" height="3.25"/><rect x="0.94" y="24.95" width="2.68" height="3.25"/><rect x="13.25" y="24.95" width="2.37" height="3.25"/><path d="M20.71,13.94a10.19,10.19,0,0,0-.27-2.75c-.46-1.88-2.83-3.83-6-3.83a6.29,6.29,0,0,0-6.11,3.83L8.72,16c.11-2.53.71-5.13,3.92-5.13A2.82,2.82,0,0,1,15.35,13a8.57,8.57,0,0,1,.27,2.79V28.2h5.09V13.94Z"/><rect x="20.71" y="24.95" width="2.52" height="3.25"/><path d="M8.36,7.86H3.62V28.2H8.7v-11c0-.39,0-.78,0-1.18l-.36-4.82Z"/><rect x="0.94" y="7.86" width="2.68" height="3.25"/></svg>