<svg id="Camada_1" data-name="Camada 1" xmlns="http://www.w3.org/2000/svg" viewBox="0 0 24.76 36.36"><defs><style>.cls-1{fill:#1d1d1b;}</style></defs><title>Sem título-1</title><path class="cls-1" d="M8.86,11.3a6.56,6.56,0,0,1,6-3.94c3.09,0,5.16,1.27,7,3.94a12.89,12.89,0,0,1,1.49,6.46,12.65,12.65,0,0,1-1.91,7.61,7.74,7.74,0,0,1-6.5,3.29,6.47,6.47,0,0,1-5.77-3.52Zm1.23,1.84a10.46,10.46,0,0,0-1.23,5c0,2.86,1.11,7.11,4.71,7.11s4.55-4,4.55-6.92-.58-7.61-4.4-7.61A4.16,4.16,0,0,0,10.09,13.14Z"/><rect x="1.41" y="7.86" width="2.68" height="3.25"/><rect x="1.41" y="31.14" width="2.68" height="3.25"/><polygon points="12.04 31.14 9.17 31.14 9.17 25.14 8.86 11.3 8.86 7.86 4.08 7.86 4.08 11.11 4.08 31.14 4.08 34.39 12.04 34.39 12.04 31.14"/></svg>