<svg id="Camada_1" data-name="Camada 1" xmlns="http://www.w3.org/2000/svg" viewBox="0 0 22.9 36.47"><defs><style>.cls-1{fill:none;}</style></defs><title>Sem título-1</title><path class="cls-1" d="M15.6,13.06A5.59,5.59,0,0,0,16.82,9.2a5.06,5.06,0,0,0-1.38-3.82c-1.22-1.11-2.37-1.11-3.89-1.11H8.91v9.94h2.64C13,14.21,14.53,14.21,15.6,13.06Z"/><rect x="8.91" y="24.76" width="4.01" height="3.44"/><path d="M11.55,4.27c1.52,0,2.67,0,3.89,1.11A5.06,5.06,0,0,1,16.82,9.2a5.59,5.59,0,0,1-1.22,3.86c-1.07,1.15-2.64,1.15-4,1.15H8.91v3.44H12.5c2.3,0,5,0,6.85-1.57A8.5,8.5,0,0,0,22.21,9.2,8.86,8.86,0,0,0,19.92,3C18.05,1.09,15.9.83,13.38.83H8.91V4.27Z"/><rect x="0.46" y="24.76" width="3.21" height="3.44"/><polygon points="8.91 14.21 8.91 4.27 8.91 0.83 3.67 0.83 3.67 4.23 3.67 24.76 3.67 28.2 8.91 28.2 8.91 24.76 8.91 17.65 8.91 14.21"/><rect x="0.46" y="0.83" width="3.21" height="3.4"/></svg>