<svg id="Camada_1" data-name="Camada 1" xmlns="http://www.w3.org/2000/svg" viewBox="0 0 20.34 36.43"><title>Sem título-1</title><polygon points="2.04 21.13 2.04 28.2 5.71 28.2 5.71 26.14 6.01 21.13 2.04 21.13"/><polygon points="17.41 14.4 17.41 7.86 13.81 7.86 13.81 9.54 13.66 14.4 17.41 14.4"/><path d="M16.57,18C15,16.08,11,15.77,8.77,15.16a5.87,5.87,0,0,1-1.15-.57A2.2,2.2,0,0,1,7,13c0-1.87,1.53-2.6,3.17-2.6,2.45,0,3.25,1.8,3.48,4l.15-4.86A6.24,6.24,0,0,0,9,7.36c-2.37,0-4.89,1.11-5.65,2.18A5.22,5.22,0,0,0,2,13.21a6,6,0,0,0,2.6,5.32c2.18,1.45,5,1.18,7.26,2.29a2.2,2.2,0,0,1,1,2.07A2.73,2.73,0,0,1,10,25.41c-2.71,0-3.82-1.76-4-4.28l-.3,5a6,6,0,0,0,5,2.52,7.59,7.59,0,0,0,6-2.52A7.84,7.84,0,0,0,18,22,5.86,5.86,0,0,0,16.57,18Z"/></svg>