<svg id="Camada_1" data-name="Camada 1" xmlns="http://www.w3.org/2000/svg" viewBox="0 0 23.04 36.52"><title>Sem título-1</title><path d="M14.31,22.35A3.57,3.57,0,0,1,11.06,25,2.77,2.77,0,0,1,8.5,23.53,8.07,8.07,0,0,1,8,20V7.86H2.92V21.2a26.16,26.16,0,0,0,.27,3.6A5.86,5.86,0,0,0,9,28.66a6.15,6.15,0,0,0,6.07-3.86l-.35-5.47A9.24,9.24,0,0,1,14.31,22.35Z"/><rect x="0.32" y="7.86" width="2.6" height="3.25"/><rect x="19.86" y="24.95" width="2.68" height="3.25"/><path d="M19.86,7.86H14.77V18c0,.44,0,.9,0,1.38l.35,5.47v3.4h4.75V7.86Z"/><rect x="12.02" y="7.86" width="2.75" height="3.25"/></svg>