<svg id="Camada_1" data-name="Camada 1" xmlns="http://www.w3.org/2000/svg" viewBox="0 0 499.54 637.05"><title>pp-10</title><path d="M436.9,70.29c-40.53-42.21-86.88-48-141.49-48H198.59V96.77h57.1c33.08,0,57.91,0,84.39,24,42.71,36.39,39.68,127.08,3.33,166.32-23.17,24.83-57.1,24.83-87.72,24.83h-57.1v74.48h77.79c49.65,0,108.4,0,148.12-33.92C503,284,509,145.91,436.9,70.29Z"/><polygon points="198.59 311.91 198.59 96.77 198.59 22.29 85.23 22.29 85.23 95.93 85.23 540.28 85.23 614.76 198.59 614.76 198.59 540.28 198.59 386.39 198.59 311.91"/><rect x="198.59" y="540.28" width="86.88" height="74.48"/><rect x="15.73" y="540.28" width="69.5" height="74.48"/><rect x="15.73" y="22.29" width="69.5" height="73.64"/></svg>